<svg id="Layer_1" data-name="Layer 1" xmlns="http://www.w3.org/2000/svg" viewBox="0 0 843.66 221.52">
  <title>Untitled-3</title>
  <g>
    <g>
      <path d="M82.24,137.94v48.28H57.1V137.28q0-10.65-3.24-15.65t-10.49-5A17.91,17.91,0,0,0,30.55,122Q25,127.46,25,137.94v48.28H0V96.66H25v10.15Q35.29,95.16,48.61,95.16a25.67,25.67,0,0,1,15.4,5A32.47,32.47,0,0,1,74.42,112.3a35.21,35.21,0,0,1,13.9-12.65,38.13,38.13,0,0,1,17.56-4.49q15.83,0,25.47,9.4T141,131.78v54.44H115.87V137.28q0-20.64-15.15-20.65a17.91,17.91,0,0,0-13,5.41Q82.23,127.46,82.24,137.94Z" style="fill: #1b75bc"/>
      <path d="M166.31,221.52q-13.16,0-24.8-10.66l11.32-18.48q6.31,6.17,13,6.16,3.49,0,6-3.41a12.09,12.09,0,0,0,2.49-7.24q0-3.82-34.62-91.23h26.63l21.81,55.77,21.81-55.77h26.64L195,202.21a29.7,29.7,0,0,1-11.41,14.23A30.77,30.77,0,0,1,166.31,221.52Z" style="fill: #1b75bc"/>
      <path d="M322.11,137.94v48.28H297V137.28q0-10.65-3.25-15.65t-10.49-5A17.93,17.93,0,0,0,270.41,122q-5.57,5.42-5.57,15.9v48.28h-25V96.66h25v10.15q10.32-11.65,23.64-11.65a25.67,25.67,0,0,1,15.4,5,32.53,32.53,0,0,1,10.4,12.15,35.28,35.28,0,0,1,13.9-12.65,38.16,38.16,0,0,1,17.57-4.49q15.81,0,25.47,9.4t9.66,27.22v54.44H355.74V137.28q0-20.64-15.15-20.65a17.91,17.91,0,0,0-13,5.41Q322.11,127.46,322.11,137.94Z" style="fill: #00aeef"/>
      <path d="M471.57,173.24Q456.42,187.55,436,187.55T402.32,175Q389,162.42,389,141.27t13.57-33.63a45.74,45.74,0,0,1,32-12.48q18.48,0,31.39,11.15t12.9,30.63v13.32H413.64a17.8,17.8,0,0,0,7.65,12A24.52,24.52,0,0,0,436,166.91q13.14,0,21.64-8.82Zm-24-53.11A18.88,18.88,0,0,0,435,115.8a22.5,22.5,0,0,0-13.57,4.5,17.17,17.17,0,0,0-7.16,12.15h39.29Q452.77,124.46,447.6,120.13Z" style="fill: #00aeef"/>
      <path d="M523.73,187.55q-15.9,0-28.38-13.48t-12.49-33.46q0-20,12.15-32.72t28.47-12.73q16.32,0,26.64,11.48V62.69h25V186.22h-25V174.4Q539.64,187.55,523.73,187.55ZM508,141.61q0,10.81,6.49,17.73t15.15,6.91a19,19,0,0,0,14.74-6.91q6.07-6.92,6.07-17.82t-6.07-18.14q-6.09-7.25-14.91-7.25t-15.15,7.33Q508,130.78,508,141.61Z" style="fill: #00aeef"/>
      <path d="M614.18,186.22h-25V96.66h25Z" style="fill: #00aeef"/>
      <path d="M704.19,186.22H680.72V175.4q-9.66,12.15-23.89,12.15t-23.89-8.24q-9.66-8.24-9.66-22t10-20.56q10-6.83,27.31-6.83h18.64v-.5q0-14.31-15.15-14.32a41,41,0,0,0-13.73,2.59,44.35,44.35,0,0,0-12.24,6.41L627,108a66.75,66.75,0,0,1,40.28-12.82q16.32,0,26.64,8.15t10.32,25.81Zm-25.14-34.13v-4.32H663.41q-15,0-15,9.32A8.57,8.57,0,0,0,652,164.5q3.59,2.58,10.24,2.58A18.22,18.22,0,0,0,674,163,13.28,13.28,0,0,0,679.05,152.09Z" style="fill: #00aeef"/>
    </g>
    <g>
      <g>
        <path d="M711.7,84.81c10.84,10.61,11.13,37.69,13.06,59a59.47,59.47,0,1,0,72.18-58.7h0l-.23,0a58.45,58.45,0,0,0-10.19-1.29C765,81.68,736.84,81.65,726,70.55c-13.78-14-15.51-29.59-17.47-41.49-.11-.74-.23-1.5-.38-2.24,0-.12-.05-.23-.07-.35a4.57,4.57,0,0,0-.17-.59,33.91,33.91,0,1,0-35.33,41.83C684.1,69.57,698.55,71.91,711.7,84.81Z" style="fill: #1b75bc"/>
        <path d="M722.45,116.88l0-.17c0,.13,0,.26,0,.4A1.85,1.85,0,0,0,722.45,116.88Z" style="fill: #6cbe45"/>
      </g>
      <g>
        <path d="M767.62,162.38h-8.3V144.74H747v17.64h-8.32V121.15H747v16.68h12.29V121.15h8.3Z" style="fill: #fff"/>
        <path d="M790.43,159.58a7.93,7.93,0,0,1-6.69,3.37,7.51,7.51,0,0,1-6.4-2.91q-2.18-2.89-2.18-8.45V131.74h8v20c0,3,1,4.47,3,4.47a4.12,4.12,0,0,0,4-2.38V131.74h8.08v30.64h-7.54Z" style="fill: #fff"/>
        <path d="M829.26,148.05q0,7.45-2.38,11.17T819.4,163a7.38,7.38,0,0,1-6.4-3.6l-.25,3h-7.39v-43.5h8v15.35a7.08,7.08,0,0,1,6-3.06q5.1,0,7.47,3.7t2.44,10.83Zm-8-2c0-3.23-.31-5.41-.93-6.51a3.42,3.42,0,0,0-3.26-1.67,3.87,3.87,0,0,0-3.68,2.3v14a3.83,3.83,0,0,0,3.74,2.16,3.37,3.37,0,0,0,3.18-1.51q.9-1.5,1-5.85Z" style="fill: #fff"/>
      </g>
    </g>
    <path d="M589.26,83a17.77,17.77,0,0,1,0-24.86,17.5,17.5,0,0,1,29.93,12.43A17.58,17.58,0,0,1,589.26,83Z" style="fill: #1b75bc"/>
  </g>
</svg>
